<svg width="11" height="10" viewBox="0 0 11 10" fill="none" xmlns="http://www.w3.org/2000/svg">
<path d="M5.94208 5.81943H7.01024C7.01686 5.80492 7.24585 5.24289 7.49734 4.45393H5.98444L5.98708 2.74277C5.98708 2.56334 5.81237 2.41821 5.63235 2.41821H4.55492V4.45261H3.32793C3.23395 4.88535 3.12144 5.34184 3.07776 5.81812H4.55625V6.7997C4.55757 6.93559 4.6264 7.06092 4.74023 7.1348L5.94208 7.89869V5.81812V5.81943Z" fill="white"/>
<path d="M5.95928 7.90806V7.92522H5.9553L4.73889 7.13758L4.73227 7.1323C4.65021 7.08085 4.59329 6.99905 4.57212 6.9067C4.56285 6.8724 4.55756 6.83809 4.55756 6.80115V5.81957H3.07907C3.12275 5.34329 3.23526 4.88681 3.32924 4.45407H4.55623V2.43286C3.76603 2.46321 3.04333 2.89463 2.64625 3.58068L2.51124 3.8142C2.47814 3.87357 2.44638 3.93293 2.41461 3.99098C2.33652 4.14007 2.24254 4.43296 2.24254 4.43296C1.64823 6.35126 2.42785 9.60868 4.2743 9.63506H7.39541C7.86 9.63506 8.28885 9.38835 8.52049 8.98727L10.5575 5.46731C9.5357 7.22729 7.61248 8.99915 5.95928 7.90938V7.90806Z" fill="url(#paint0_linear_79_3762)"/>
<path d="M5.96199 4.45419H7.53445C7.79653 3.62565 8.04802 2.56228 8.12347 1.68228C8.00963 0.762715 6.99839 0.00146484 6.19627 0.00146484H3.33592C2.87133 0.00146484 2.44247 0.248179 2.21084 0.649254L0.173787 4.16921C-0.0578475 4.57029 -0.0578475 5.06372 0.173787 5.46611L2.21084 8.98607C1.52256 7.79604 1.34652 6.04002 2.43189 3.99111C2.46233 3.93174 2.49409 3.87237 2.52851 3.81432L2.66352 3.5808C3.07517 2.86968 3.83625 2.43034 4.66087 2.43034H5.62181C5.81109 2.43034 5.96331 2.58338 5.96331 2.77073V4.45419H5.96199Z" fill="url(#paint1_linear_79_3762)"/>
<path d="M10.5497 5.4831C9.52519 7.24703 7.59535 9.02548 5.93817 7.91857C7.78065 9.13103 10.9401 4.87884 9.95669 3.16504L10.5483 4.18883C10.78 4.58991 10.78 5.08334 10.5483 5.48573L10.5497 5.4831Z" fill="url(#paint2_linear_79_3762)"/>
<path d="M5.94208 7.91731V5.81958H7.01024C7.01024 5.81958 9.25908 0.25994 7.40203 0.0224609C7.97649 0.0963432 8.28357 0.265218 8.51653 0.666293L9.96192 3.16378C10.9454 4.87758 7.78456 9.12977 5.9434 7.91731H5.94208Z" fill="url(#paint3_linear_79_3762)"/>
<path opacity="0.31" d="M7.49078 4.48823C7.75815 3.65837 8.0467 2.59368 8.11553 1.71237C7.98449 0.864039 7.10031 0.137092 6.33923 0.0275879C6.32599 0.0275879 6.31408 0.0275879 6.30084 0.0275879C8.00832 0.5131 7.48946 4.49087 7.48946 4.49087L7.49078 4.48823Z" fill="#162AA3"/>
<path d="M8.12344 1.7336C8.17903 1.02248 8.11682 0.399758 7.75547 0.150405C7.73032 0.134573 7.70517 0.120062 7.68002 0.106869C7.65752 0.0949952 7.63369 0.0818006 7.60855 0.0725653C7.59663 0.067288 7.58472 0.0646499 7.57413 0.0606919C7.53839 0.0501373 7.50133 0.0409004 7.46295 0.0343038C7.44309 0.0316651 7.42324 0.0277087 7.40471 0.0277087L6.18433 0C6.9785 0 7.98181 0.811386 8.12344 1.73228V1.7336Z" fill="url(#paint4_linear_79_3762)"/>
<path opacity="0.31" d="M4.52317 2.43677C3.8521 2.47371 3.23264 2.79694 2.82497 3.32335C2.72172 3.48563 2.62377 3.63999 2.54833 3.76005L2.51921 3.81151C2.48612 3.87088 2.45435 3.93025 2.42258 3.9883C2.3789 4.07009 2.34052 4.15189 2.30213 4.23369C1.58738 6.11637 2.35375 9.60599 4.26506 9.63237C2.09697 9.197 3.12278 2.77188 4.52317 2.43677Z" fill="#162AA3"/>
<path d="M5.93553 7.90012L4.71912 7.13095C4.61323 7.06367 4.54838 6.94757 4.54838 6.82224L4.55367 5.81954H3.07386C2.87664 7.5782 3.14136 9.40811 4.26247 9.63372C4.20159 9.63372 4.1407 9.62844 4.08246 9.62053C4.1407 9.62844 4.20159 9.63372 4.26247 9.63504H7.38357C7.84817 9.63504 8.27702 9.38832 8.50865 8.98725L10.5457 5.46729C9.52123 7.23122 7.59138 9.00968 5.93421 7.90276L5.93553 7.90012Z" fill="url(#paint5_linear_79_3762)"/>
<path d="M4.27436 9.63495H3.32003C2.85544 9.63495 2.42658 9.38823 2.19495 8.98715C1.50667 7.79712 1.34783 6.0411 2.4332 3.99219C1.54637 5.79703 2.27834 9.60856 4.27569 9.63627L4.27436 9.63495Z" fill="url(#paint6_linear_79_3762)"/>
<defs>
<linearGradient id="paint0_linear_79_3762" x1="10.5072" y1="9.44904" x2="2.43185" y2="4.74924" gradientUnits="userSpaceOnUse">
<stop stop-color="#9D6AEF"/>
<stop offset="1" stop-color="#293ACE"/>
</linearGradient>
<linearGradient id="paint1_linear_79_3762" x1="-1.10086" y1="7.6839" x2="6.70115" y2="0.876117" gradientUnits="userSpaceOnUse">
<stop stop-color="#46E0C2"/>
<stop offset="1" stop-color="#0E72E0"/>
</linearGradient>
<linearGradient id="paint2_linear_79_3762" x1="10.416" y1="3.86956" x2="6.88077" y2="8.58796" gradientUnits="userSpaceOnUse">
<stop offset="0.05" stop-color="#CDB7F9"/>
<stop offset="0.58" stop-color="#A272ED"/>
<stop offset="1" stop-color="#8D63EA"/>
</linearGradient>
<linearGradient id="paint3_linear_79_3762" x1="7.46424" y1="7.52679" x2="9.19278" y2="0.0239528" gradientUnits="userSpaceOnUse">
<stop stop-color="#0B3FD1"/>
<stop offset="1" stop-color="#5BC6F4"/>
</linearGradient>
<linearGradient id="paint4_linear_79_3762" x1="7.37294" y1="1.58979" x2="7.05857" y2="-0.0439183" gradientUnits="userSpaceOnUse">
<stop stop-color="#53BAF3"/>
<stop offset="0.49" stop-color="#55BEF3"/>
<stop offset="0.64" stop-color="#72CCF5"/>
<stop offset="0.83" stop-color="#93DBF7"/>
<stop offset="0.94" stop-color="#A0E2F9"/>
</linearGradient>
<linearGradient id="paint5_linear_79_3762" x1="10.1989" y1="9.21022" x2="3.68416" y2="5.41855" gradientUnits="userSpaceOnUse">
<stop stop-color="#9D6AEF"/>
<stop offset="1" stop-color="#293ACE"/>
</linearGradient>
<linearGradient id="paint6_linear_79_3762" x1="3.06854" y1="5.42498" x2="2.88443" y2="10.2274" gradientUnits="userSpaceOnUse">
<stop stop-color="#3FD3C6"/>
<stop offset="0.44" stop-color="#46E0C2"/>
<stop offset="0.82" stop-color="#9CF1E1"/>
<stop offset="1" stop-color="#C0F9EE"/>
</linearGradient>
</defs>
</svg>
